<?xml version="1.0" encoding="UTF-8"?>
<svg width="101px" height="101px" viewBox="0 0 101 101" version="1.1" xmlns="http://www.w3.org/2000/svg" xmlns:xlink="http://www.w3.org/1999/xlink">
    <!-- Generator: Sketch 42 (36781) - http://www.bohemiancoding.com/sketch -->
    <title>milsa</title>
    <desc>Created with Sketch.</desc>
    <defs></defs>
    <g id="Page-1" stroke="none" stroke-width="1" fill="none" fill-rule="evenodd">
        <g id="Desktop" transform="translate(-906.000000, -58.000000)">
            <g id="milsa" transform="translate(906.000000, 58.000000)">
                <path d="M34.8277436,30.3666834 L50.1992197,23.9371269 L50.1992197,8.45632065 L62.7662498,21.0233508 L62.7662498,41.1488512 L50.744372,53.1707291 L50.744372,69.0211568 L65.6520499,83.9288347 L78.4993378,81.0353615 L89.8401256,82.7001717 L71.5402973,101 L52.7396143,82.199317 L36.5443782,98.394553 L36.5443782,66.33661 C36.5443782,66.33661 22.7503885,71.428357 18.0179802,66.33661 C13.285572,61.2448631 18.0179802,46.4034754 18.0179802,46.4034754 L0,28.3854952 L12.3237415,16.0617537 L34.8277436,30.3666834 Z" id="Path-2" fill="#C6AFE0"></path>
                <polygon id="Path-2" fill="#C6AFE0" points="38.8277436 25.9103627 49.5505486 26.7326686 54.1992197 4 66.7662498 16.5670302 66.7662498 36.6925306 54.744372 48.7144084 54.744372 64.5648362 69.6520499 79.4725141 80.4689669 79.4725141 93.8401256 78.2438511 75.5402973 96.5436793 56.7396143 77.7429963 40.5443782 93.9382324 40.5443782 61.8802894 22.0179802 61.8802894 22.0179802 41.9471548 4 23.9291746 16.3237415 11.605433"></polygon>
                <path d="M39.7530321,27.992838 C46.8906591,31.1629682 57.759855,29.3403629 60.9840767,24.7445864 C64.2082985,20.14881 60.7345463,0.206180953 60.7345463,0.206180953 L73.3015765,12.7732111 C73.3015765,12.7732111 80.0034917,17.3011772 77.0771314,24.7445864 C74.1507712,32.1879956 63.6121359,38.066771 60.7345463,44.7383624 C57.8569567,51.4099538 58.6305046,58.0864703 60.9840767,63.5767 C63.3376489,69.0669298 76.1873765,75.678695 76.1873765,75.678695 L88.8957459,62.9703257 L100.375452,74.450032 L82.075624,92.7498603 L63.2749409,73.9491773 L47.0797049,90.1444133 L47.0797049,58.0864703 C47.0797049,58.0864703 33.2857151,63.1782173 28.5533069,58.0864703 C23.8208986,52.9947234 28.5533069,38.1533357 28.5533069,38.1533357 L10.5353266,20.1353555 L22.8590682,7.81161398 C22.8590682,7.81161398 32.6154052,24.8227078 39.7530321,27.992838 Z" id="Path-2" fill="#FFFFFF"></path>
                <circle id="Oval" fill="#CEB3E2" cx="40.5" cy="46.5" r="6.5"></circle>
            </g>
        </g>
    </g>
</svg>